<svg width="27" height="69" viewBox="0 0 27 69" fill="none" xmlns="http://www.w3.org/2000/svg">
<path d="M0.709703 44.096C0.709703 40.1674 0.930123 36.2288 0.659609 32.3203C0.288904 26.9485 1.74167 22.3986 5.07801 18.1293C8.1739 14.1606 9.20586 9.37015 8.70491 4.3091C8.51455 2.36486 9.76693 0.891643 11.7707 0.801446C13.1433 0.741315 14.516 0.741315 15.8886 0.801446C17.8924 0.891643 19.0846 2.31475 18.9243 4.32915C18.4635 9.96144 19.9763 15.0425 23.4329 19.4822C25.7273 22.4287 26.9396 25.5555 26.8694 29.4039C26.6891 39.8667 26.8193 50.3396 26.7893 60.8125C26.7693 66.0038 24.2445 68.5293 19.1147 68.5694C15.578 68.5994 12.0413 68.4591 8.51454 68.5995C3.30464 68.8199 0.880027 65.4025 0.779836 60.9728C0.659608 55.3505 0.74978 49.7182 0.74978 44.0859C0.729742 44.0859 0.719724 44.0859 0.699686 44.0859L0.709703 44.096ZM11.2998 3.37707C11.4702 4.60976 11.8108 5.48166 11.6505 6.25335C10.5885 11.6251 9.74689 17.0569 5.8595 21.4064C3.90578 23.5912 3.11428 26.2971 3.15435 29.3738C3.29462 38.4637 3.19443 47.5635 3.20445 56.6634C3.20445 58.297 3.15435 59.9405 3.29462 61.5641C3.5451 64.5907 4.89767 65.9437 7.92342 66.0238C11.6505 66.124 15.3776 66.1341 19.1047 66.0539C23.0522 65.9637 24.2445 64.721 24.2645 60.8024C24.3046 50.3997 24.1543 39.997 24.3747 29.5943C24.4448 25.9864 23.2626 23.1502 21.1285 20.4544C17.4515 15.7942 16.2893 10.3322 16.2292 4.52958C16.2292 4.14875 15.6882 3.47729 15.3475 3.44722C14.0751 3.31694 12.7726 3.39711 11.3099 3.39711L11.2998 3.37707Z" fill="white"/>
<path d="M4.69732 47.8342C4.69732 44.106 4.76745 40.3679 4.66726 36.6397C4.61716 34.7957 5.3686 34.2245 7.09187 34.2545C11.5403 34.3147 15.9888 34.3147 20.4372 34.2545C22.1204 34.2345 22.9119 34.7055 22.8919 36.5997C22.8017 43.7954 22.8518 51.0011 22.8418 58.1968C22.8418 59.0487 22.8118 59.9005 22.6715 60.7424C22.3809 62.5062 21.5093 63.9494 19.5856 64.0396C15.9487 64.2099 12.2817 64.4304 8.66486 64.1398C5.88959 63.9193 4.79751 62.3058 4.74741 59.4195C4.67728 55.561 4.72738 51.6926 4.72738 47.8342C4.71736 47.8342 4.70734 47.8342 4.69732 47.8342ZM13.7646 57.826C15.8285 57.826 16.8604 56.7737 16.8604 54.6691C16.8604 54.4085 16.8805 54.148 16.8604 53.8874C16.7001 52.2639 17.3013 51.3819 19.0546 51.5222C20.297 51.6225 20.858 50.9911 20.7879 49.7584C20.7579 49.107 20.7579 48.4555 20.7879 47.8041C20.828 46.6917 20.3771 46.0002 19.1949 46.1104C17.1911 46.2908 16.6901 45.2285 16.8504 43.4947C16.9105 42.7832 16.9807 42.0315 16.8003 41.35C16.6801 40.899 16.2092 40.3078 15.7884 40.1975C12.2116 39.2454 10.9292 40.1674 10.9492 43.7954C10.9492 45.4991 10.298 46.2207 8.64482 46.0904C7.23213 45.9801 6.57088 46.6015 6.68109 48.0446C6.73119 48.6961 6.52078 49.4176 6.7412 49.9789C6.98166 50.5702 7.53271 51.3619 8.07373 51.4621C10.8991 52.0333 10.9191 51.9732 10.9191 54.8294C10.9191 56.8271 11.8643 57.826 13.7545 57.826H13.7646Z" fill="white"/>
</svg>
