<svg width="47" height="70" viewBox="0 0 47 70" fill="none" xmlns="http://www.w3.org/2000/svg">
<path d="M27.4898 13.0961C26.4778 11.4324 25.2956 9.99929 23.7026 8.92695C22.9211 8.40581 22.0995 7.96485 21.1778 7.69426C21.2579 7.77443 21.3281 7.87465 21.4182 7.9448C24.3238 10.1596 25.9769 13.1662 26.9688 16.6238C27.9506 20.0412 28.4817 23.5288 28.5017 27.0866C28.5017 28.2992 28.5017 29.5219 28.5017 30.7346L28.6319 30.7847C28.7221 30.6243 28.8223 30.474 28.9125 30.3136C29.6639 28.8504 30.4755 27.4374 31.5174 26.1546C32.89 24.4709 34.5632 23.2282 36.6672 22.6068C36.7374 22.5868 36.8075 22.5367 36.8776 22.4565C36.4668 22.3563 36.0561 22.3663 35.6353 22.4565C34.3228 22.7171 33.1505 23.3184 32.0284 24.0099C31.8481 24.1201 31.6677 24.2304 31.3772 24.4108C31.7178 23.2883 32.1286 22.3763 32.7397 21.5545C34.6634 18.9789 37.9497 17.8264 40.9353 18.6883C42.0875 19.019 43.0393 19.6504 43.7507 20.6225C44.0813 21.0835 44.0913 21.3441 43.7106 21.7449C42.0775 23.4286 40.2741 24.8617 37.9897 25.5532C36.8075 25.914 35.6052 26.0844 34.3829 25.914C33.942 25.8539 33.6014 25.9742 33.3108 26.2949C32.9702 26.6957 32.6295 27.0866 32.3089 27.4975C30.0747 30.3838 28.642 33.6309 27.9807 37.1987C27.2593 41.0972 26.1673 44.8955 25.2455 48.7339C25.0752 49.4254 24.9149 50.1169 24.8347 50.8485C24.9549 50.6681 25.0652 50.4877 25.1854 50.3073C26.027 49.0445 26.8085 47.7417 27.7302 46.529C28.3915 45.6571 29.183 44.8855 29.9945 44.1438C31.1467 43.0915 32.4993 42.38 34.0122 41.9691C34.5632 41.8188 35.1143 41.6384 35.6553 41.4279C34.6734 41.1272 33.7016 41.2575 32.7297 41.478C31.7679 41.6985 30.9163 42.1695 29.9845 42.7909C30.0446 42.5403 30.0546 42.4401 30.0947 42.3499C30.7359 40.8767 31.7379 39.7041 33.0604 38.8222C35.1243 37.4292 37.3686 37.2087 39.703 37.9603C40.9554 38.3512 41.8972 39.173 42.6085 40.2654C42.9993 40.8667 42.9592 41.2174 42.4081 41.6684C40.4945 43.2519 38.3404 44.3443 35.8557 44.685C34.7937 44.8253 33.7316 44.7351 32.7097 44.4345C31.9983 44.234 31.4273 44.3543 30.8962 44.8654C30.5155 45.2362 30.0847 45.5669 29.6539 45.8977C27.7402 47.3709 26.4277 49.275 25.6563 51.54C24.9549 53.6145 24.3037 55.7191 23.7026 57.8237C23.5122 58.4851 23.5322 59.2067 23.5423 59.8982C23.5523 60.6699 23.8629 60.8904 24.6343 60.7501C25.9068 60.5196 27.1892 60.2791 28.4616 60.0185C30.786 59.5374 32.9001 60.0185 34.8237 61.3815C35.6553 61.9728 36.4869 62.564 37.2784 63.2054C38.631 64.2978 40.1639 64.9693 41.8471 65.3401C42.4081 65.4704 42.9692 65.6307 43.5203 65.8011C45.3738 66.3523 46.2254 67.7053 46.4859 69.5393C46.035 69.6696 1.99129 69.7297 0.809039 69.5994C0.558563 69.2988 0.588617 68.938 0.598636 68.5772C0.628694 63.6765 0.658751 58.7858 0.688808 53.8851C0.758941 42.2497 0.819056 30.6143 0.88919 18.9789C0.88919 17.215 0.919246 15.4612 0.939284 13.6974C0.939284 12.9758 0.979364 12.9357 1.67068 12.9357C5.30759 12.9557 8.94451 12.9858 12.5814 13.0159C13.3829 13.0159 13.6935 13.2865 13.8639 14.0682C13.914 14.3187 13.924 14.5893 13.924 14.8399C13.924 16.0425 13.924 17.2451 13.924 18.4377V19.0992C16.2484 19.2996 18.2221 20.1715 19.6949 22.0055C20.5265 23.0378 21.0776 24.1802 21.1978 25.1624C19.6749 23.9097 18.0017 23.158 16.0079 23.2683C16.1081 23.3083 16.2083 23.3484 16.3085 23.3885C17.8314 23.9598 19.184 24.7916 20.3161 25.9541C22.3199 27.9785 24.1033 30.1834 25.1954 32.8592C25.2255 32.9293 25.2756 32.9795 25.3858 33.1398C25.4759 32.2479 25.5862 31.4662 25.6463 30.6844C26.027 25.5933 25.8867 20.5423 24.6343 15.5614C24.5642 15.2908 24.5041 15.0203 24.4841 14.7396C24.4239 14.0882 24.0833 13.7475 23.4521 13.5871C22.891 13.4568 22.34 13.2764 21.7989 13.066C20.226 12.4747 18.8333 11.6028 17.621 10.4302C15.5871 8.45592 14.0041 6.17093 12.9121 3.55522C12.8119 3.3147 12.7317 3.06415 12.6616 2.8136C12.5413 2.42275 12.6415 2.07198 12.9922 1.88157C14.6053 0.969577 16.3085 0.3382 18.1921 0.688966C20.256 1.05978 22.1296 1.89159 23.6725 3.35479C26.2574 5.80012 27.61 8.78664 27.59 12.3645C27.59 12.615 27.5399 12.8555 27.4998 13.0961M13.0523 34.3725V25.6234C12.892 25.5332 12.7017 25.4129 12.5113 25.3127C11.2489 24.5911 10.1167 23.7192 9.11483 22.6669C8.5738 22.0857 8.56378 21.6948 9.10481 21.1035C9.97647 20.1515 11.0185 19.49 12.3109 19.2495C12.5714 19.1994 12.8519 19.1493 13.1425 19.0891V14.0481H2.0514V23.2482H4.97696V24.08H1.97125V27.7981H4.9469V28.63H2.02134C1.87106 29.6823 1.87106 31.9272 2.01132 32.3781H4.91685V33.1097H1.91113V36.8178H4.84672V37.7098H1.91113V41.4479H4.87677V42.1595H1.89109C1.75083 42.841 1.76085 45.4567 1.91113 45.9377H4.85673V46.7094H1.91113V50.4977H4.86675V51.2794H1.83098V54.9875H4.77658V55.8594C3.76466 55.8293 2.80283 55.7892 1.841 55.7592C1.71075 56.4206 1.71075 59.0564 1.85102 59.4973C2.81285 59.5475 3.7847 59.4372 4.75654 59.5074V60.3392H1.82096C1.70073 61.1409 1.70073 63.7166 1.82096 64.0874H4.65635V64.9593H1.6807V67.2843C1.94119 67.0538 2.20169 66.8434 2.43212 66.6029C3.35388 65.6307 4.40588 64.9994 5.80854 65.0996C6.55997 65.1497 7.16112 64.7789 7.59194 64.1776C7.83239 63.8368 8.04279 63.466 8.2031 63.0852C8.86435 61.4616 10.1067 60.69 11.7999 60.5296C12.1506 60.4995 12.5013 60.4494 12.9121 60.3993V41.6083C12.8519 41.5883 12.7618 41.5482 12.6616 41.5181C10.5175 40.9468 8.73411 39.7743 7.17113 38.2409C6.91064 37.9904 6.65015 37.7398 6.40969 37.4793C6.16923 37.2187 6.12915 36.9581 6.32953 36.7276C6.86054 36.1063 7.38154 35.4649 8.12295 35.064C9.52561 34.3023 11.0084 34.0418 12.5814 34.3324C12.7117 34.3625 12.8519 34.3525 13.0323 34.3725M22.4201 48.323C22.5203 47.9922 22.5804 47.7918 22.6406 47.5914C22.7908 47.0301 22.9411 46.4789 23.0714 45.9077C23.6324 43.5826 24.2336 41.2575 24.7345 38.9224C25.0752 37.2989 25.005 35.6553 24.4239 34.0718C23.4521 31.406 21.9492 29.0709 19.9454 27.0565C19.5246 26.6256 19.0337 26.5354 18.4626 26.6156C17.1401 26.816 15.8376 26.6657 14.5552 26.2548C14.3448 26.1846 14.1444 26.1245 13.8538 26.0443V34.7132C15.0561 35.2344 16.1582 35.9058 17.0399 36.898C17.9116 37.8701 18.5027 38.9926 18.8033 40.3556C18.2322 39.9547 17.7613 39.5839 17.2403 39.2932C16.6993 39.0026 16.1181 38.7721 15.537 38.5817C14.986 38.4113 14.4149 38.271 13.8138 38.4314C13.914 38.5416 14.0242 38.6218 14.1344 38.6619C15.9779 39.2932 17.4106 40.4658 18.5929 41.9791C20.0156 43.7931 21.2479 45.7273 22.1697 47.8519C22.2197 47.9722 22.2899 48.0824 22.4201 48.333M13.7737 41.8488C13.7236 48.0323 13.6835 54.2659 13.6334 60.4194C14.7255 60.7801 15.7274 61.1209 16.7393 61.4316C17.3305 61.612 17.9316 61.7623 18.5327 61.8826C19.184 62.0229 19.3643 61.9026 19.4345 61.2311C19.6448 59.4372 20.1558 57.7135 20.6668 55.9997C21.0074 54.8472 21.308 53.6947 21.6386 52.5422C22.0294 51.1591 21.9292 49.8162 21.3781 48.5033C20.3863 46.1382 19.0137 44.0236 17.3505 42.0893C17.08 41.7787 16.7694 41.6584 16.3486 41.6885C15.517 41.7586 14.6854 41.7987 13.7737 41.8488Z" fill="white"/>
</svg>
