<svg width="69" height="66" viewBox="0 0 69 66" fill="none" xmlns="http://www.w3.org/2000/svg">
<path d="M34.0251 59.3157C32.923 59.2456 32.0013 58.8848 31.1296 58.3336C30.0776 57.6621 29.216 56.7702 28.4746 55.768C26.8515 53.5732 25.8195 51.0978 25.0581 48.5021C24.1263 45.3051 23.6654 42.048 23.5252 38.7208C23.3448 34.4514 23.7155 30.2322 24.7675 26.0832C25.3687 23.728 26.2002 21.4631 27.4326 19.3585C28.2842 17.8953 29.2961 16.5624 30.6587 15.5301C31.6205 14.8086 32.6826 14.3175 33.945 14.2273C33.6845 14.8186 33.3739 15.3397 33.2136 15.9009C32.923 16.9432 32.6525 18.0055 32.4722 19.0679C31.9512 22.1646 31.7007 25.2914 31.5304 28.4283C31.2599 33.2889 31.2298 38.1595 31.4302 43.0302C31.6005 47.0991 31.851 51.1679 32.6024 55.1867C32.7327 55.8682 32.893 56.5397 33.0633 57.2011C33.1535 57.5619 33.2837 57.9127 33.434 58.2434C33.5843 58.5741 33.7847 58.8848 34.0051 59.3057L34.0251 59.3157Z" fill="white"/>
<path d="M34.6563 59.3255C35.7784 57.5517 36.0489 55.5874 36.3294 53.6531C37.3614 46.3171 37.5317 38.931 37.2612 31.5349C37.161 28.8189 37.0107 26.103 36.7603 23.3971C36.5699 21.3627 36.2192 19.3382 35.8585 17.3238C35.6682 16.2615 35.3776 15.2092 34.6462 14.2772C35.3275 14.207 35.8786 14.4175 36.4196 14.628C37.4015 15.0188 38.2331 15.6301 38.9745 16.3617C40.5074 17.8851 41.5594 19.7191 42.411 21.6834C43.6233 24.4694 44.3347 27.3858 44.7555 30.3824C45.1061 32.8578 45.2664 35.3432 45.1963 37.8486C45.056 42.5489 44.3547 47.1389 42.5613 51.5185C41.8199 53.3124 40.8981 54.9961 39.6357 56.4793C38.8743 57.3713 38.0026 58.1329 36.9606 58.6741C36.2493 59.0449 35.5079 59.2654 34.6563 59.3255Z" fill="white"/>
<path d="M40.9383 16.3118C53.1114 19.7994 60.5756 35.0126 52.881 48.001C53.6825 48.7726 54.494 49.5343 55.2855 50.306C55.6062 50.6167 55.8767 50.9674 56.1672 51.3082C57.099 52.3805 57.5298 53.5831 57.4296 55.0463C57.2092 58.4538 57.099 61.8612 56.9387 65.2687C56.9387 65.3388 56.9086 65.409 56.8886 65.5092C56.7383 65.5493 56.578 65.5894 56.4177 65.6294C56.3776 65.5392 56.3275 65.4691 56.3175 65.409C56.2374 64.527 56.1572 63.6351 56.0971 62.7532C55.9368 60.4882 55.7765 58.2133 55.6262 55.9483C55.6062 55.6477 55.5661 55.3871 55.3256 55.1466C53.8628 53.7034 52.4201 52.2502 50.8972 50.7269C48.2021 53.7936 44.9659 56.0385 40.8982 57.3413C41.0485 57.1409 41.0886 57.0607 41.1386 57.0206C44.1744 54.8158 46.1682 51.8193 47.5909 48.4119C48.8333 45.4454 49.4945 42.3486 49.725 39.1416C50.0656 34.4614 49.4645 29.9215 47.7612 25.5419C46.6792 22.7759 45.1864 20.2604 43.0623 18.1558C42.4111 17.5144 41.6997 16.9532 40.9583 16.3018L40.9383 16.3118Z" fill="white"/>
<path d="M27.6529 16.3018C27.5327 16.4822 27.5026 16.5523 27.4525 16.5924C24.2965 18.9475 22.2727 22.1144 20.86 25.7223C19.6878 28.7189 19.0866 31.8257 18.9163 35.0327C18.6658 39.6427 19.3271 44.1024 21.0704 48.3718C22.1725 51.0777 23.6854 53.523 25.8094 55.5575C26.3805 56.0986 26.9917 56.5897 27.5928 57.1108C26.631 57.0407 24.1963 55.8782 22.3428 54.6254C20.7197 53.523 19.287 52.2202 17.9745 50.7169C17.8543 50.8171 17.7541 50.8873 17.6639 50.9674C16.3013 52.3304 14.9387 53.6934 13.5661 55.0463C13.3257 55.2869 13.1954 55.5374 13.1754 55.8882C12.985 58.8747 12.7646 61.8512 12.5542 64.8377C12.5342 65.0782 12.4941 65.3188 12.454 65.6194C12.2536 65.5894 12.0933 65.5593 11.8929 65.5292C11.8428 64.8277 11.7827 64.1462 11.7527 63.4647C11.6224 60.5483 11.5423 57.632 11.3719 54.7256C11.3018 53.533 11.6525 52.5308 12.3839 51.6489C12.9349 50.9775 13.506 50.326 14.1071 49.7147C14.6983 49.1134 15.3395 48.5722 15.9607 48.001C12.1534 41.156 11.7126 34.1307 15.2293 27.0452C17.8242 21.8138 22.0322 18.3162 27.6529 16.3018Z" fill="white"/>
<path d="M26.0599 10.1382C25.8395 10.018 25.5991 9.89772 25.3686 9.76743C24.0561 9.02581 23.0342 8.02363 22.6434 6.51032C22.5533 6.15956 22.5032 5.77872 22.4932 5.41794C22.4731 3.95474 22.4932 2.50157 22.4932 1.03838C22.4932 0.94818 22.5232 0.847959 22.5633 0.597412C22.6935 0.90809 22.7637 1.07846 22.8338 1.24884C23.2746 2.27107 23.6754 3.30332 24.1663 4.29549C24.6272 5.25759 25.3486 5.98919 26.3705 6.39006C26.9015 6.60052 27.4025 6.86109 27.9034 7.12166C28.2741 7.31207 28.5847 7.36218 28.9053 7.03146C29.0556 6.87111 29.246 6.75085 29.4464 6.64061C30.0275 6.33995 30.4583 5.93907 30.7088 5.28765C30.9492 4.64625 31.4903 4.20529 32.0914 3.89461C33.6744 3.0628 35.2674 3.0628 36.8404 3.91466C37.5318 4.28546 38.0728 4.83667 38.3533 5.58831C38.4635 5.89899 38.6539 6.06936 38.9244 6.22971C39.4955 6.57045 40.0465 6.94126 40.6677 7.35216C41.5794 6.90118 42.5713 6.5003 43.463 5.93907C43.984 5.60835 44.4249 5.06717 44.7254 4.51597C45.2665 3.5238 45.6772 2.46149 46.1381 1.41921C46.2483 1.17868 46.3185 0.918116 46.5188 0.667569C46.5289 0.817897 46.5589 0.968222 46.5589 1.11855C46.5589 2.40135 46.5389 3.69418 46.5589 4.97698C46.599 7.02144 45.6772 8.52472 43.974 9.58704C43.6634 9.77745 43.3328 9.94783 42.9721 10.1583C43.0823 10.3988 43.1825 10.6093 43.2827 10.8298C43.8237 11.9823 44.1543 13.1949 44.0942 14.4777C44.0842 14.7182 44.0642 14.9788 43.994 15.2093C43.8438 15.7204 43.5131 15.9509 42.9921 15.8708C42.5814 15.8006 42.1806 15.6703 41.7999 15.4999C40.9382 15.1291 40.1066 14.6982 39.245 14.3174C37.9826 13.7561 36.6801 13.3052 35.2775 13.1749C33.9149 13.0546 32.6124 13.255 31.35 13.7361C30.2178 14.167 29.1358 14.6982 28.0237 15.1792C27.5027 15.3997 26.9817 15.6503 26.4507 15.8106C25.6492 16.0511 25.2284 15.7806 25.058 14.9588C24.8577 13.9866 25.048 13.0346 25.3285 12.1126C25.5289 11.4611 25.8295 10.8298 26.1 10.1483L26.0599 10.1382Z" fill="white"/>
<path d="M1.09245 16.2818C1.67356 18.6068 2.23462 20.8818 2.80571 23.1467C3.00609 23.9585 3.22651 24.7703 3.40685 25.5921C3.49702 26.003 3.6974 26.2936 4.04807 26.5341C5.73127 27.6967 7.39443 28.8993 9.08765 30.0518C9.52849 30.3525 9.64872 30.6632 9.52849 31.1643C9.3782 31.7656 9.12773 32.2867 8.57668 32.5974C8.01561 32.9181 7.46456 33.0083 6.84338 32.5974C5.6411 31.8157 4.43881 31.034 3.38681 30.0518C2.55523 29.2701 1.97413 28.3882 1.84388 27.1956C1.57336 24.7202 1.21268 22.2448 0.892069 19.7694C0.761821 18.7872 0.68167 17.8051 0.541403 16.8229C0.481289 16.4221 0.661631 16.2918 1.09245 16.2617V16.2818Z" fill="white"/>
<path d="M67.7693 16.2717C68.1801 16.3219 68.3504 16.4622 68.3003 16.863C67.8294 20.4408 67.3585 24.0086 66.9077 27.5864C66.8175 28.278 66.557 28.8893 66.0761 29.3603C65.4148 30.0218 64.7235 30.6531 63.9921 31.2444C63.3709 31.7355 62.6996 32.1464 62.0284 32.5673C61.1667 33.1085 60.1548 32.858 59.6238 31.976C59.4936 31.7656 59.4034 31.5351 59.3333 31.2945C59.1529 30.573 59.203 30.4427 59.8242 30.0017C61.4773 28.8392 63.1305 27.6666 64.8037 26.5141C65.1343 26.2936 65.3146 26.023 65.4048 25.6322C66.1262 22.6557 66.8776 19.6892 67.619 16.7227C67.6591 16.5824 67.7092 16.4421 67.7693 16.2617V16.2717Z" fill="white"/>
<path d="M12.4641 0.467143C12.5543 1.56955 12.6445 2.64189 12.7246 3.72425C12.8849 5.88898 13.0452 8.0537 13.1755 10.2184C13.1955 10.5892 13.3758 10.7997 13.6063 11.0302C15.059 12.4734 16.5018 13.9265 17.9445 15.3797C18.4555 15.8908 18.4755 16.0011 18.175 16.6625C17.9145 17.2538 17.5037 17.6948 16.8625 17.8651C16.3114 18.0155 15.8305 17.9653 15.3596 17.5344C14.2475 16.5122 13.1554 15.4799 12.2537 14.2673C11.5824 13.3653 11.2718 12.3832 11.342 11.2306C11.5424 7.85326 11.6726 4.47589 11.8229 1.09852C11.8429 0.747753 11.7928 0.3569 12.4541 0.457119L12.4641 0.467143Z" fill="white"/>
<path d="M56.3174 0.477051C56.8985 0.517138 56.8985 0.51714 56.9286 1.03828C57.0188 2.64178 57.1189 4.24528 57.1791 5.83876C57.2592 7.81307 57.3193 9.78738 57.3995 11.7617C57.4295 12.4031 57.2692 12.9844 56.9586 13.5255C55.9668 15.2092 54.5541 16.5121 53.0813 17.7648C52.951 17.875 52.7206 17.9251 52.5402 17.9352C51.4983 17.9953 50.5765 17.2036 50.4062 16.1613C50.3461 15.7905 50.5565 15.6201 50.7669 15.4097C52.1595 14.0166 53.5421 12.6035 54.9648 11.2305C55.4057 10.7996 55.586 10.3586 55.6261 9.74729C55.7964 6.79083 56.0269 3.8444 56.2373 0.887948C56.2473 0.747641 56.2974 0.607335 56.3274 0.477051H56.3174Z" fill="white"/>
<path d="M51.0875 21.2625C50.1958 20.3806 49.3141 19.5688 48.4826 18.6969C48.0818 18.276 48.1219 18.0655 48.5126 17.6145C48.6429 17.4642 48.7932 17.3339 48.9434 17.2137C49.1338 17.0633 49.3342 16.9331 49.5546 16.7727C50.5064 17.384 51.3981 18.0355 52.1395 18.8673C52.6405 19.4185 52.6405 19.8895 52.1195 20.4207C51.8389 20.7113 51.4783 20.9418 51.0875 21.2625Z" fill="white"/>
<path d="M19.1969 16.7327C19.5576 17.0233 19.8582 17.2438 20.1187 17.4943C20.6697 18.0255 20.6998 18.256 20.1788 18.7972C19.3973 19.619 18.5557 20.3907 17.7341 21.1924C17.2332 20.992 16.8725 20.7114 16.5719 20.3506C16.1411 19.8394 16.1311 19.4185 16.592 18.8974C16.8525 18.5967 17.133 18.3161 17.4436 18.0756C17.9946 17.6246 18.5757 17.2037 19.2069 16.7327H19.1969Z" fill="white"/>
<path d="M9.72889 35.9045C9.25799 35.6038 8.81716 35.3934 8.44645 35.0827C8.02565 34.7419 7.98558 34.3711 8.24607 33.8901C8.77708 32.928 9.54855 32.1563 10.3401 31.4147C10.4302 31.3345 10.6406 31.2744 10.7308 31.3245C11.1416 31.545 11.5423 31.7855 11.913 32.0661C12.2236 32.3066 12.1335 32.6474 11.9331 32.928C11.4822 33.5794 11.0314 34.2208 10.5705 34.8622C10.3401 35.1829 10.0896 35.4735 9.74893 35.9045H9.72889Z" fill="white"/>
<path d="M59.0126 35.8644C58.3012 34.8723 57.5999 33.9503 56.9587 32.9982C56.598 32.467 56.6882 32.2065 57.2092 31.8156C57.2693 31.7755 57.3294 31.7354 57.3895 31.6953C58.2311 31.1441 58.2812 31.1241 58.9825 31.8858C59.5135 32.467 60.0245 33.0683 60.4754 33.7097C60.9362 34.3612 60.816 34.8021 60.1748 35.2832C60.0345 35.3834 59.8943 35.4836 59.734 35.5538C59.5336 35.654 59.3332 35.7241 59.0126 35.8644Z" fill="white"/>
</svg>
