<svg width="75" height="69" viewBox="0 0 75 69" fill="none" xmlns="http://www.w3.org/2000/svg">
<path d="M46.1523 15.8444C46.7435 14.9825 47.535 15.2631 48.2363 15.2732C48.6671 15.2732 48.8375 15.7241 49.098 16.0649C48.6671 16.5058 48.2564 16.9368 47.8055 17.4078C48.1161 17.7285 48.4167 18.0392 48.7573 18.4C49.1681 17.9991 49.5588 17.6183 49.9896 17.1974C50.5006 17.8087 50.8413 18.4501 51.1919 19.1516C50.9415 19.4222 50.691 19.6928 50.4104 19.9834C50.7411 20.4645 51.1819 20.8253 51.5927 21.2161C51.6528 21.2763 51.8432 21.2161 51.9734 21.1961C52.4243 22.0079 52.8551 24.383 52.7248 25.5556C52.3642 25.2249 52.0435 24.9242 51.6829 24.5935C51.3021 25.0144 50.9314 25.4253 50.5507 25.8462C50.9114 26.207 51.3122 26.5979 51.733 27.0088C52.0436 26.7081 52.3541 26.4075 52.7749 26.0066C52.825 27.6502 52.5746 29.1033 52.1137 30.5766C52.0035 30.5164 51.9333 30.4864 51.8632 30.4463C51.8131 30.4162 51.763 30.3861 51.6829 30.326C51.2921 30.767 50.9014 31.2079 50.4706 31.699C50.691 31.9395 50.9815 32.2502 51.3322 32.6311C50.9715 33.2624 50.6008 33.9139 50.19 34.6354C49.6791 34.1444 49.2282 33.7134 48.7573 33.2624C48.4467 33.6032 48.1762 33.9139 47.8456 34.2746C48.2964 34.7356 48.7773 35.2468 49.3084 35.798C48.7874 36.3391 48.2964 36.8503 47.7654 37.4115C47.2244 36.8703 46.7134 36.3692 46.1824 35.8481C45.7616 36.3191 45.3709 36.75 44.93 37.2411C45.3107 37.6219 45.7416 38.0729 46.2325 38.564C45.6013 39.0551 44.9601 39.3958 44.2587 39.7566C43.9281 39.4459 43.5975 39.1352 43.2368 38.8045C42.9162 39.1252 42.6156 39.4159 42.285 39.7466C42.4453 39.947 42.5755 40.1074 42.7058 40.2777C41.253 41.5104 35.0212 41.6107 32.7669 40.4281C32.9072 40.2477 33.0474 40.0673 33.2278 39.8268C33.0374 39.6263 32.827 39.4259 32.6266 39.2054C32.4262 38.9849 32.2359 38.7544 32.0054 38.4738C31.5446 38.9047 31.1639 39.2655 30.7431 39.6764C30.1018 39.2956 29.4806 38.9248 28.7693 38.4938C29.3103 37.9426 29.7912 37.4516 30.3323 36.9004C29.9716 36.6097 29.641 36.3391 29.2502 36.0285C28.7893 36.4895 28.2483 37.0206 27.6472 37.6119C27.1061 37.0707 26.6052 36.5696 26.0541 36.0285C26.6252 35.4472 27.1462 34.916 27.7273 34.3147C27.2865 33.8738 26.8657 33.4428 26.4048 32.9818C25.9139 33.4729 25.443 33.9339 24.932 34.445C24.421 33.8337 24.1205 33.1522 23.7598 32.4406C24.0904 32.0999 24.411 31.7591 24.7617 31.3984C24.4411 31.0777 24.1305 30.787 23.7898 30.4563C23.6195 30.5966 23.4392 30.7369 23.2588 30.8872C22.0565 29.2236 22.0866 23.1103 23.3089 20.8754C23.4692 20.9856 23.6195 21.0959 23.8199 21.2362C23.9702 21.0959 24.1205 20.9455 24.2808 20.8052C24.4511 20.6649 24.6314 20.5547 24.8518 20.3943C24.4711 19.9834 24.1906 19.6828 23.86 19.332C24.2407 18.6806 24.6114 18.0392 25.0222 17.3377C25.5131 17.8187 25.9339 18.2296 26.3747 18.6605C26.8156 18.2096 27.2364 17.7886 27.6872 17.3276C27.2163 16.8466 26.7454 16.3655 26.2746 15.8845C26.495 15.4235 26.7955 15.213 27.2765 15.2732C27.547 15.3032 27.8275 15.2932 28.108 15.2732C28.5589 15.2431 28.9797 15.2732 29.3003 15.7241C29.661 15.223 30.1519 15.2631 30.6529 15.2732C31.5646 15.2732 32.4864 15.2932 33.3981 15.2732C33.8289 15.2631 34.1696 15.3433 34.4401 15.7041C34.5403 15.8244 34.6705 15.9246 34.8308 16.0749C35.0011 15.9045 35.1815 15.7642 35.3318 15.5939C35.5322 15.3734 35.7526 15.2732 36.0632 15.2832C37.1953 15.3032 38.3275 15.3132 39.4696 15.2832C39.8604 15.2631 40.0708 15.5237 40.3714 15.7241C40.692 15.2431 41.1729 15.2932 41.6538 15.2932C42.6858 15.2932 43.7177 15.3132 44.7597 15.2932C45.2707 15.2932 45.7616 15.2732 46.1123 15.8945M23.8399 24.5935C23.369 25.0345 22.9482 25.4454 22.4874 25.8863C22.9582 26.3173 23.329 26.7883 23.7097 27.0789C24.2006 26.6279 24.6314 26.2271 25.0723 25.8162C24.6715 25.4153 24.2607 25.0144 23.8399 24.6035M34.8208 27.1491C35.2616 26.7181 35.6824 26.3072 36.1032 25.8963C35.6624 25.4454 35.2516 25.0144 34.8909 24.6436C34.4301 25.0645 33.9892 25.4654 33.5885 25.8262C34.0193 26.2872 34.42 26.7181 34.8208 27.1391M44.6595 25.8162C45.0803 26.2772 45.4811 26.7081 45.8518 27.109C46.3026 26.6781 46.7234 26.2672 47.1643 25.8462C46.7535 25.3952 46.3327 24.9643 45.9319 24.5935C45.461 25.0545 45.0402 25.4454 44.6595 25.8262M28.1481 20.244C28.5489 20.705 28.9396 21.166 29.2302 21.5068C29.7111 21.1059 30.1619 20.715 30.5527 20.3943C30.1219 19.9233 29.7311 19.4823 29.3304 19.0414C28.8995 19.4823 28.4988 19.8832 28.1481 20.244ZM41.6538 20.3442C41.2029 19.8932 40.7922 19.4723 40.3413 19.0213C39.8904 19.4523 39.4596 19.8632 39.129 20.244C39.5899 20.7251 39.9906 21.146 40.3613 21.5168C40.7821 21.136 41.213 20.7351 41.6538 20.3342M41.6137 31.4585C41.1929 30.9975 40.7922 30.5565 40.4114 30.1356C39.9506 30.5565 39.5197 30.9674 39.149 31.3182C39.5899 31.7792 40.0006 32.2101 40.3814 32.601C40.8022 32.2101 41.243 31.8093 41.6237 31.4485M28.098 31.3382C28.5389 31.7892 28.9597 32.2201 29.3003 32.5709C29.7411 32.1901 30.182 31.7992 30.5928 31.4485C30.1519 30.9774 29.7512 30.5565 29.3704 30.1356C28.9096 30.5665 28.4787 30.9674 28.098 31.3382ZM33.6285 36.8603C34.0794 37.3614 34.4601 37.7923 34.7907 38.1531C35.2616 37.7322 35.7025 37.3514 36.1634 36.9405C35.7025 36.4895 35.2817 36.0685 34.921 35.7178C34.4601 36.1187 34.0293 36.5195 33.6285 36.8703M44.5994 34.1945C44.3289 33.964 44.1185 33.7836 43.9081 33.6132C43.6977 33.4328 43.5574 33.1422 43.2368 33.082C42.816 33.513 42.4052 33.9239 42.0746 34.2646C42.4854 34.7356 42.8461 35.1465 43.1767 35.5274C43.6376 35.0964 44.0684 34.6956 44.5994 34.2045M49.9997 23.0401C49.5688 22.5991 49.148 22.1682 48.7272 21.7272C48.3265 22.1281 47.9357 22.5089 47.545 22.8898C47.9959 23.3307 48.4167 23.7517 48.8675 24.1926C49.2382 23.8118 49.6189 23.4209 49.9896 23.0401M38.9687 39.8568C38.5279 39.4159 38.1371 39.035 37.7764 38.6843C37.3556 39.0751 36.9248 39.476 36.5341 39.8468C36.9549 40.2677 37.3456 40.6586 37.7363 41.0594C38.1371 40.6686 38.5579 40.2677 38.9687 39.8668M43.2368 16.2353C42.806 16.6261 42.4052 16.9969 42.0045 17.3577C42.4553 17.8087 42.8761 18.2196 43.317 18.6605C43.7378 18.2897 44.1285 17.8989 44.4992 17.478C44.0383 17.017 43.6275 16.6161 43.2368 16.2252M48.6671 29.9151C49.098 29.5042 49.5388 29.0933 49.9596 28.6925C49.5889 28.3016 49.2082 27.9107 48.8475 27.5299C48.3866 27.9608 47.9658 28.3617 47.545 28.7626C47.9558 29.1835 48.3365 29.5844 48.6571 29.9151M26.7555 24.1626C27.046 23.892 27.3566 23.5813 27.6472 23.3007C27.2063 22.8397 26.7955 22.4087 26.4449 22.0379C26.0942 22.3286 25.7636 22.6092 25.3929 22.9198C25.8738 23.3708 26.3046 23.7717 26.7555 24.1726M44.2087 22.97C43.888 22.6292 43.5975 22.3085 43.347 22.0479C42.8861 22.4789 42.4453 22.8798 42.0546 23.2405C42.3652 23.5913 42.6457 23.922 42.8761 24.1826C43.347 23.7416 43.7879 23.3508 44.1986 22.97M42.0145 28.4319C42.4653 28.9029 42.8761 29.3238 43.2468 29.7147C43.5674 29.424 43.878 29.1334 44.1786 28.8528C43.7478 28.4018 43.337 27.9709 42.9463 27.56C42.6156 27.8707 42.305 28.1513 42.0045 28.4319M30.9334 17.3777C31.3843 17.8287 31.7951 18.2497 32.2459 18.7107C32.5765 18.3799 32.8871 18.0592 33.1276 17.8187C32.6767 17.3276 32.286 16.8867 31.8752 16.4357C31.5546 16.7564 31.264 17.047 30.9334 17.3777ZM38.6882 17.4379C38.3375 17.0871 38.0269 16.7865 37.7363 16.4858C37.3256 16.8967 36.9048 17.3076 36.4439 17.7686C36.7645 18.0893 37.0851 18.39 37.4057 18.7107C37.8666 18.2597 38.2774 17.8588 38.6882 17.4479M32.2058 29.7648C32.5365 29.4441 32.847 29.1434 33.1476 28.8528C32.7168 28.4118 32.296 27.9809 31.9253 27.6001C31.5947 27.9107 31.2841 28.2014 30.9835 28.482C31.4043 28.9229 31.8051 29.3439 32.2058 29.7648ZM37.3356 29.7247C37.8065 29.2938 38.2373 28.8929 38.6581 28.5121C38.3475 28.1914 38.057 27.8807 37.7965 27.6001C37.3456 28.021 36.9048 28.4319 36.4639 28.8428C36.7946 29.1735 37.0851 29.4641 37.3456 29.7247M30.9434 23.2806C31.254 23.6514 31.5346 23.9922 31.8552 24.1926C32.3261 23.7517 32.7569 23.3608 33.1576 22.99C32.847 22.6493 32.5565 22.3286 32.276 22.0179C31.8151 22.4588 31.3843 22.8597 30.9434 23.2806ZM27.6171 28.5521C27.2865 28.1813 27.0059 27.8707 26.7755 27.6101C26.3146 28.031 25.8838 28.4219 25.463 28.7927C25.7836 29.1434 26.0742 29.4641 26.3547 29.7748C26.7955 29.3439 27.2163 28.933 27.6071 28.5521M38.6381 34.4049C38.2373 33.964 37.8365 33.533 37.4859 33.1622C37.1452 33.4829 36.8146 33.7836 36.5842 34.004C36.9649 34.445 37.3456 34.886 37.7564 35.357C38.077 35.0062 38.3575 34.7056 38.6381 34.4049ZM31.8552 35.2969C32.316 34.8559 32.7469 34.455 33.1476 34.0642C32.847 33.7335 32.5465 33.3927 32.316 33.1422C31.8251 33.5831 31.3843 33.974 30.9234 34.3749C31.254 34.6956 31.5446 34.9862 31.8451 35.2969M47.0641 20.0636C46.7234 19.763 46.493 19.3721 46.1924 19.2218C45.7316 19.6327 45.3308 19.9935 44.9501 20.3342C45.2807 20.6549 45.5813 20.9556 45.8718 21.2462C46.2525 20.8654 46.6433 20.4845 47.0741 20.0636M46.0622 32.5408C46.4028 32.2502 46.7234 31.9796 47.014 31.7391C46.6132 31.3182 46.2325 30.9273 45.8718 30.5565C45.5612 30.8371 45.2406 31.1177 44.91 31.4284C45.3308 31.8293 45.7215 32.2101 46.0622 32.5408ZM38.6481 23.3307C38.2273 22.8697 37.8265 22.4388 37.4157 21.9978C37.0851 22.3286 36.7745 22.6292 36.4439 22.97C36.8947 23.3909 37.2755 23.8619 37.7564 24.2327C38.087 23.902 38.3776 23.6114 38.6581 23.3408M39.3995 36.9705C39.7502 37.4215 40.171 37.7923 40.5818 38.1932C40.9124 37.8524 41.213 37.5518 41.5336 37.2211L40.3313 36.0184C40.0207 36.3291 39.7402 36.6298 39.3995 36.9705ZM34.8108 32.4005C35.1514 32.0698 35.452 31.7692 35.8027 31.4284C35.472 31.1077 35.1614 30.797 34.901 30.5365C34.5403 30.8973 34.2297 31.1879 33.9291 31.4885C34.2197 31.7892 34.5102 32.0999 34.8008 32.4106M35.8127 20.3542C35.442 20.0035 35.1414 19.7028 34.8108 19.3921C34.4601 19.7529 34.1696 20.0536 33.9191 20.3041C34.2597 20.6749 34.5503 20.9856 34.7907 21.2562C35.1214 20.9656 35.432 20.685 35.8127 20.3643M41.2931 25.9064C40.9825 25.5857 40.6819 25.275 40.4114 25.0044C40.0507 25.3251 39.7301 25.6057 39.4296 25.8663C39.7502 26.2271 40.0307 26.5478 40.3112 26.8484C40.6519 26.5177 40.9525 26.2271 41.2831 25.9064M28.3685 25.8763C28.6891 26.217 28.9797 26.5377 29.2803 26.8484C29.6209 26.5277 29.9315 26.2371 30.2321 25.9465C29.8914 25.6157 29.5808 25.3151 29.2702 25.0244C28.9697 25.3151 28.6591 25.6157 28.3685 25.8863" fill="white"/>
<path d="M9.50265 19.5526C9.33232 19.8833 9.15198 20.214 8.99168 20.5548C8.23023 22.1382 7.78939 23.7918 7.98977 25.5757C8.08996 26.4777 8.37049 27.3195 8.9015 28.0611C9.44253 28.8128 10.0236 28.923 10.8051 28.4119C11.0356 28.2616 11.2359 28.0812 11.5465 27.8507C11.4964 28.1113 11.4664 28.2716 11.4163 28.432C11.1758 29.1736 10.9654 29.9152 10.6949 30.6468C10.0437 32.4207 11.0055 33.5331 12.1477 34.1144C12.4282 34.2547 12.7288 34.3749 13.0394 34.4451C13.6004 34.5754 13.871 34.425 14.0313 33.8738C14.1314 33.5531 14.1515 33.2124 14.2016 32.8817C14.2316 32.6913 14.2517 32.4908 14.2918 32.2002C14.422 32.3806 14.5322 32.4608 14.5723 32.571C14.953 33.4429 15.4039 34.2948 15.6844 35.2068C16.1753 36.8503 17.1973 38.063 18.5599 39.0451C18.7202 39.1554 18.8705 39.2756 18.9907 39.5061C18.7903 39.466 18.5999 39.446 18.3996 39.3959C15.2135 38.6042 12.1076 37.5418 9.08185 36.2791C7.36859 35.5675 5.87575 34.5353 4.71354 33.0621C3.31087 31.2782 2.70973 29.2538 2.83998 26.9988C2.88005 26.3274 3.08044 25.706 3.47118 25.1648C3.902 24.5635 4.34284 23.9822 4.84379 23.4411C6.13625 22.028 7.61907 20.8153 9.14196 19.6628C9.23213 19.5927 9.34234 19.5426 9.44253 19.4824C9.47259 19.5125 9.49263 19.5325 9.52268 19.5626" fill="white"/>
<path d="M56.0311 39.4461C56.1914 39.3158 56.3317 39.2156 56.4619 39.1054C57.023 38.6043 57.6141 38.1332 58.1451 37.5921C58.6962 37.0308 59.0268 36.3293 59.2973 35.5877C59.658 34.6156 60.0688 33.6735 60.4696 32.7214C60.5397 32.541 60.6599 32.3907 60.8603 32.2504C60.8803 32.4308 60.8803 32.6212 60.9004 32.8016C60.9705 33.2125 61.0306 33.6234 61.1509 34.0243C61.241 34.3349 61.4815 34.4853 61.8322 34.4753C62.9743 34.4352 64.3069 33.3528 64.5774 32.2404C64.6976 31.7593 64.6175 31.2983 64.4772 30.8373C64.2367 30.0957 63.9963 29.3641 63.7658 28.6225C63.6957 28.422 63.6556 28.2116 63.5655 27.8909C63.7658 28.0312 63.876 28.0913 63.9762 28.1715C64.1065 28.2617 64.2267 28.3719 64.357 28.4521C65.0883 28.9031 65.6594 28.8029 66.1704 28.1114C66.8216 27.2395 67.1022 26.2272 67.1623 25.1549C67.2725 23.3309 66.7215 21.6673 65.8799 20.0738C65.7797 19.8934 65.6995 19.703 65.5492 19.4023C65.7396 19.4925 65.8097 19.5126 65.8698 19.5627C67.5631 20.8555 69.2062 22.1984 70.6289 23.8019C70.9094 24.1126 71.1499 24.4534 71.4104 24.7741C72.1718 25.7362 72.3722 26.8486 72.3021 28.0312C72.1017 31.1179 70.6189 33.443 68.1041 35.1567C67.0421 35.8783 65.8698 36.3594 64.6776 36.8204C62.1127 37.7925 59.5178 38.6844 56.8527 39.3459C56.6423 39.396 56.4319 39.4461 56.2115 39.4862C56.1714 39.4862 56.1413 39.4661 56.0411 39.4361" fill="white"/>
<path d="M51.773 40.6785C52.6848 41.5604 53.5764 42.4123 54.5182 43.3142C54.3279 43.5046 54.1676 43.675 54.0073 43.8254C52.304 45.3888 50.701 47.0424 49.2482 48.8463C48.2663 50.059 47.3947 51.3317 46.6833 52.7148C46.0822 53.8873 45.471 55.0398 44.8799 56.2124C43.4772 58.9885 42.7659 61.985 42.2549 65.0316C42.0746 66.104 41.8942 67.1863 41.7139 68.3088H40.4715C40.4515 68.1484 40.4214 68.0382 40.4214 67.9179C40.2912 63.2678 40.8122 58.7078 42.3251 54.2882C43.2568 51.5522 44.6094 49.0467 46.483 46.8319C48.0259 45.0079 49.5488 43.1739 51.0917 41.3499C51.2821 41.1194 51.5125 40.929 51.783 40.6685" fill="white"/>
<path d="M20.5537 43.3341C21.5055 42.4221 22.3972 41.5602 23.3991 40.5981C23.5895 40.8487 23.7598 41.0692 23.9402 41.2796C25.7636 43.4644 27.6272 45.6191 29.4005 47.844C31.3042 50.2492 32.4764 53.0353 33.308 55.9617C34.0794 58.7077 34.5203 61.5138 34.6405 64.37C34.6806 65.4023 34.6906 66.4345 34.7106 67.4768C34.7106 67.7474 34.6706 68.018 34.6405 68.3287H33.3981C33.2679 67.557 33.1677 66.8154 33.0274 66.0738C32.7068 64.4001 32.3962 62.7164 32.0155 61.0528C31.5146 58.8881 30.5327 56.9138 29.6009 54.9094C27.6272 50.6601 24.7216 47.1524 21.3051 44.0156C21.0847 43.8152 20.8643 43.6147 20.5737 43.3441" fill="white"/>
<path d="M71.4906 49.9688C71.4906 50.1391 71.5106 50.2093 71.4906 50.2494C70.9495 51.5422 70.2682 52.7448 69.2363 53.727C68.2444 54.669 67.1122 55.0799 65.6995 54.8594C62.6838 54.3884 59.638 54.3182 56.6022 54.6189C55.6204 54.7191 54.6385 54.9396 53.6867 55.1801C52.5746 55.4607 51.4825 55.4908 50.4105 55.0599C50.0498 54.9095 49.6991 54.6891 49.4286 54.4185C48.8675 53.8673 48.9777 53.0054 49.619 52.5544C49.7693 52.4442 49.9296 52.374 50.0798 52.2838C52.2039 51.1413 54.4381 50.3696 56.8527 50.1692C58.1552 50.059 59.4276 50.2794 60.69 50.55C62.1628 50.8607 63.6356 51.2014 65.1184 51.4921C66.0202 51.6725 66.9319 51.7927 67.8436 51.5722C68.3446 51.452 68.8355 51.2716 69.2964 51.0611C70.0178 50.7404 70.7091 50.3596 71.4906 49.9688Z" fill="white"/>
<path d="M3.63157 50.019C3.79188 50.0792 3.95218 50.1393 4.09245 50.2095C4.68357 50.5001 5.2747 50.7807 5.84578 51.0914C6.87774 51.6326 7.96982 51.8029 9.09195 51.6025C10.675 51.3319 12.248 50.9711 13.8209 50.6604C14.5824 50.5101 15.3438 50.3397 16.1053 50.2395C18.6902 49.8988 21.1148 50.5302 23.4693 51.5424C24.1105 51.813 24.7317 52.1337 25.3328 52.4744C26.1945 52.9655 26.2746 53.9677 25.4931 54.599C24.6816 55.2605 23.6997 55.4108 22.6878 55.3807C22.3171 55.3807 21.9364 55.3106 21.5757 55.2004C20.0227 54.7093 18.4197 54.559 16.8066 54.4988C14.2217 54.3986 11.6368 54.4988 9.07192 54.9097C8.02994 55.0801 7.10818 54.7393 6.28662 54.108C5.35485 53.3864 4.69359 52.4443 4.14254 51.4221C3.9121 50.9912 3.72174 50.5502 3.52136 50.1092C3.55142 50.0792 3.58148 50.0591 3.62155 50.0291" fill="white"/>
<path d="M39.64 41.6509C39.1691 44.9481 38.6581 48.1851 38.4777 51.4623C38.3074 54.7394 38.1872 58.0166 38.0369 61.3138C37.556 61.4641 37.0851 61.394 36.5641 61.3539C36.534 61.0833 36.504 60.8328 36.494 60.5822C36.3938 58.0567 36.3136 55.5312 36.2034 53.0057C36.0732 50.0392 35.7526 47.0928 35.3117 44.1664C35.1915 43.3446 35.0813 42.5228 34.9611 41.6509H39.6299H39.64Z" fill="white"/>
<path d="M74.2659 33.1621C74.2458 34.8458 74.1557 36.4694 73.4944 37.9927C73.1838 38.7143 72.7229 39.3356 72.1519 39.8768C70.2883 41.6206 68.0841 42.272 65.5693 42.0115C63.285 41.7809 61.0808 41.1997 58.9367 40.3879C58.8165 40.3378 58.6963 40.2676 58.4458 40.1374C59.2373 39.987 59.8885 39.8768 60.5298 39.7365C62.0426 39.4158 63.5655 39.0951 65.0684 38.7443C66.4109 38.4236 67.6533 37.8424 68.8356 37.1408C70.5989 36.1186 72.202 34.8859 73.7048 33.5129C73.815 33.4127 73.9353 33.3024 74.0655 33.1922C74.0956 33.1722 74.1356 33.1722 74.2659 33.1421" fill="white"/>
<path d="M16.506 40.2374C16.3257 40.3176 16.1653 40.4078 15.975 40.4679C13.9111 41.2196 11.8071 41.7808 9.62291 42.0013C7.41872 42.2218 5.40489 41.8109 3.61148 40.4379C2.16873 39.3354 1.33715 37.9023 1.06664 36.1385C0.926372 35.2365 0.886295 34.3145 0.816162 33.4125C0.816162 33.3324 0.836201 33.2622 0.856239 33.0718C1.05662 33.2321 1.19689 33.3524 1.33715 33.4727C2.23887 34.2243 3.13056 34.986 4.06234 35.7075C6.45689 37.5415 9.13197 38.7341 12.1177 39.2453C13.4101 39.4657 14.6925 39.7464 15.975 39.9969C16.1453 40.037 16.3156 40.0771 16.496 40.1172C16.496 40.1572 16.496 40.1973 16.516 40.2274" fill="white"/>
<path d="M5.89581 47.3532C6.66728 47.3532 7.43874 47.3332 8.21021 47.3532C9.34236 47.3933 10.3142 47.0225 11.1658 46.3009C11.6367 45.9 12.1076 45.4992 12.5986 45.1384C13.7307 44.3066 14.9831 43.7754 16.4058 43.7754C18.2994 43.7754 19.7321 44.7074 20.8843 46.1305C21.3051 46.6617 21.1348 47.1929 20.4936 47.4735C19.8123 47.7741 19.0709 47.8142 18.3395 47.8743C17.1973 47.9645 16.0451 48.0247 14.8929 48.1048C13.8409 48.175 12.809 48.3754 11.797 48.6761C9.86335 49.2574 8.02987 49.0068 6.32663 47.8844C6.1563 47.7741 5.996 47.6238 5.83569 47.4935L5.89581 47.3432V47.3532Z" fill="white"/>
<path d="M69.3865 47.4031C69.116 47.6236 68.9657 47.7739 68.7954 47.8842C67.2424 48.9265 65.5192 49.3073 63.7358 48.7761C61.5917 48.1448 59.3975 48.0546 57.2034 47.8942C56.512 47.8441 55.8207 47.7439 55.1394 47.6437C54.929 47.6136 54.7186 47.5234 54.5283 47.4232C53.9772 47.1325 53.847 46.6415 54.2177 46.1304C54.4181 45.8598 54.6485 45.6092 54.899 45.3787C56.7325 43.675 58.8064 43.3042 61.1108 44.3164C61.8823 44.6471 62.5635 45.1382 63.2048 45.6693C63.5855 45.99 63.9662 46.3007 64.367 46.6014C65.0483 47.1025 65.8097 47.343 66.6513 47.333C67.3426 47.333 68.044 47.333 68.7353 47.333C68.9056 47.333 69.0759 47.363 69.3965 47.3831" fill="white"/>
<path d="M31.6147 13.3689C31.0637 13.3689 30.6028 13.3589 30.1419 13.3689C29.8714 13.3689 29.7011 13.2687 29.5808 13.0282C29.3404 12.5471 29.0799 12.0761 28.8194 11.6051C26.8757 8.02727 24.932 4.43944 22.9983 0.851604C22.8981 0.661188 22.808 0.470773 22.6877 0.210204C22.9382 0.19016 23.0985 0.180137 23.2688 0.170116C24.0203 0.170116 24.7817 0.200181 25.5332 0.170116C25.984 0.150072 26.1944 0.310421 26.3647 0.721318C27.5871 3.67777 28.8294 6.6242 30.0718 9.58066C30.5226 10.663 30.9835 11.7454 31.4344 12.8277C31.4945 12.9681 31.5346 13.1184 31.6147 13.3689Z" fill="white"/>
<path d="M43.9583 13.3689C44.0484 13.0983 44.0985 12.9079 44.1687 12.7376C45.7817 8.71879 47.4148 4.71003 49.0079 0.681236C49.1581 0.310427 49.3385 0.150078 49.7493 0.170122C50.5207 0.200188 51.3022 0.170121 52.0737 0.180142C52.244 0.180142 52.4143 0.200187 52.6548 0.220231C52.5446 0.460756 52.4745 0.63113 52.3943 0.801502C50.2903 4.81025 48.1863 8.819 46.0923 12.8378C45.8919 13.2286 45.6615 13.409 45.2207 13.3689C44.8299 13.3389 44.4392 13.3689 43.9583 13.3689Z" fill="white"/>
<path d="M29.2903 0.220469H32.7769C33.5784 4.56996 34.38 8.91946 35.1915 13.3391C34.5403 13.3892 33.9491 13.3692 33.2979 13.3391C31.9754 8.98961 30.6429 4.65014 29.2903 0.210449" fill="white"/>
<path d="M35.933 0.220215H39.3595C39.4697 1.3126 39.2793 2.39496 39.2493 3.47733C39.2192 4.56971 39.1291 5.6621 39.0689 6.75448C39.0088 7.84686 38.9687 8.93925 38.9086 10.0316C38.8485 11.124 38.7884 12.2064 38.7283 13.3288H36.8447C36.5441 8.96932 36.2436 4.62984 35.933 0.220215Z" fill="white"/>
<path d="M42.5756 0.220215H46.0623C44.7898 4.62984 43.5374 8.98936 42.275 13.3689C41.7541 13.3689 41.2932 13.3689 40.8423 13.3689C40.7221 13.3689 40.6119 13.3389 40.4015 13.3188C41.1028 8.94927 41.8442 4.6098 42.5756 0.220215Z" fill="white"/>
<path d="M9.60292 60.5822C10.0638 59.56 10.3543 58.5478 10.9254 57.6558C11.2561 57.1447 11.737 56.7939 12.258 56.4933C12.9593 56.1024 13.7207 55.882 14.5022 55.7417C14.893 55.6615 15.2436 55.7416 15.5743 55.9721C16.5762 56.6937 17.0571 57.6959 17.1573 58.8985C17.1773 59.0689 17.1272 59.2493 17.0671 59.4197C16.9569 59.7504 16.7565 59.8807 16.4259 59.8105C15.1034 59.5299 13.8209 59.8105 12.5285 60.031C11.727 60.1713 10.9355 60.3617 10.1439 60.5221C9.99366 60.5521 9.84337 60.5522 9.5929 60.5822" fill="white"/>
<path d="M65.5192 60.6319C64.6376 60.4415 63.9062 60.2611 63.1748 60.1408C62.1528 59.9704 61.1309 59.8201 60.1089 59.7199C59.6581 59.6798 59.2072 59.76 58.7464 59.8101C58.3456 59.8502 58.0951 59.7099 57.9949 59.319C57.9749 59.2589 57.9749 59.2088 57.9649 59.1386C57.8246 57.9661 58.6762 56.3726 59.7483 55.8515C59.9687 55.7512 60.2492 55.7111 60.4897 55.7412C61.4214 55.8615 62.3131 56.1521 63.1147 56.6632C63.7859 57.0942 64.2969 57.6654 64.5875 58.407C64.868 59.1086 65.1686 59.8001 65.5192 60.6319Z" fill="white"/>
</svg>
