<svg width="82" height="69" viewBox="0 0 82 69" fill="none" xmlns="http://www.w3.org/2000/svg">
<path d="M73.2501 54.9899C72.9996 54.6692 72.7993 54.4387 72.6289 54.1882C70.5951 51.3921 68.5111 48.6361 66.5474 45.7899C63.5016 41.3903 59.8847 37.5218 55.847 34.0442C53.3823 31.9196 50.8375 29.8751 48.2927 27.8407C47.3208 27.069 46.5994 26.147 46.1085 25.0145C45.0264 22.5391 44.285 19.9434 43.6338 17.3277C43.0727 15.0628 42.5918 12.7878 42.0708 10.5128C42.0107 10.2423 41.9406 9.98169 41.7602 9.75119C41.7202 11.515 41.6901 13.2789 41.63 15.0427C41.5198 18.2197 42.151 21.2463 43.4735 24.1226C43.5436 24.2629 43.5937 24.4232 43.7039 24.7239C43.3533 24.5635 43.1329 24.4733 42.9325 24.3731C40.1171 22.9199 37.3218 21.4267 34.4764 20.0236C30.9296 18.2698 27.1224 17.2876 23.245 16.5661C23.1448 16.546 23.0246 16.5661 22.724 16.5661C23.0346 16.7465 23.205 16.8567 23.3853 16.9369C25.6496 17.909 27.9239 18.8811 30.1882 19.8633C30.7794 20.1238 31.3605 20.4044 31.9416 20.6951C32.2021 20.8254 32.4225 21.0358 32.8333 21.3265C32.3724 21.4668 32.1019 21.587 31.8213 21.6371C29.3967 22.1382 26.9821 22.6193 24.5675 23.1304C23.6859 23.3208 22.8242 23.5513 21.9626 23.7818C21.7121 23.852 21.4717 23.9823 21.2312 24.0925C21.2312 24.1626 21.2512 24.2428 21.2613 24.313C21.5318 24.313 21.8223 24.3831 22.0928 24.343C22.9745 24.1927 23.8562 24.0023 24.7379 23.8219C27.3629 23.2707 29.9979 23.411 32.6028 23.882C34.1758 24.1626 35.7188 24.5836 37.2717 24.9844C39.2755 25.5056 41.089 26.4276 42.8022 27.6102C46.2087 29.9553 49.3647 32.6111 52.4906 35.317C53.3423 36.0486 54.1738 36.8103 55.0154 37.5419C55.1858 37.6822 55.3761 37.7924 55.5565 37.9026L55.4262 38.1031C55.0455 38.1031 54.6648 38.1432 54.2941 38.1031C51.3184 37.7523 48.4129 38.2334 45.5274 38.8848C43.7741 39.2756 42.0408 39.7166 40.2975 40.2878C40.4878 40.2979 40.6782 40.338 40.8685 40.3279C42.692 40.2478 44.5155 40.1876 46.349 40.0674C50.0961 39.8469 53.8031 40.0974 57.4701 41.0094C58.1214 41.1698 58.6123 41.5005 59.1132 41.9515C62.3494 44.918 64.9343 48.4256 67.5292 51.9132C69.0321 53.9477 70.5049 56.0022 71.9877 58.0566C72.148 58.2771 72.2983 58.5076 72.4887 58.7882C72.0378 59.139 71.5268 59.1791 71.0459 59.2092C69.3427 59.3495 67.6294 59.5399 65.9262 59.5399C61.6881 59.5399 57.4401 59.58 53.202 59.3595C39.6362 58.658 28.5151 53.0657 20.069 42.3323C19.558 41.6809 19.1172 40.9794 18.6363 40.2878C18.6763 40.2377 18.7064 40.1776 18.7365 40.1175C19.4178 40.2177 20.099 40.3079 20.7703 40.4282C22.0728 40.6587 23.3853 40.799 24.6978 40.4983C25.2689 40.368 25.8299 40.1876 26.4812 40.0072C26.3409 39.8469 26.2908 39.7467 26.2107 39.7066C22.2131 37.5519 18.6663 34.7457 15.1797 31.8494C13.9073 30.7971 12.6749 29.6847 11.4326 28.5923C7.70548 25.3252 5.21074 21.2363 3.48746 16.6462C1.78422 12.1163 0.852454 7.42611 0.611997 2.59556C0.601978 2.29491 0.611997 1.99425 0.611997 1.6034C1.52373 1.5132 2.38537 1.39294 3.24701 1.32279C8.42686 0.901867 13.5967 0.360684 18.8066 0.561121C26.0003 0.831712 32.9435 2.29491 39.526 5.27141C40.057 5.51193 40.578 5.7725 41.2292 5.94287C40.598 4.85048 39.9768 3.74808 39.2755 2.51539C39.6863 2.58554 39.9268 2.60559 40.1672 2.66572C42.161 3.13675 44.1548 3.60777 46.1386 4.11889C47.8919 4.56987 49.525 5.33153 51.088 6.21346C57.951 10.0619 64.0626 14.8824 69.4329 20.6249C73.3503 24.804 75.6847 29.7849 76.4462 35.4573C77.0674 40.0874 76.6466 44.6574 75.3842 49.1472C74.9033 50.8409 74.252 52.4845 73.6609 54.1581C73.5707 54.4187 73.4305 54.6492 73.2702 54.9799M14.809 10.5429C14.789 11.1242 15.2598 11.6253 15.841 11.6453C16.382 11.6553 16.8729 11.2044 16.913 10.6632C16.9531 10.0919 16.4922 9.55075 15.9211 9.51066C15.35 9.47057 14.829 9.96164 14.809 10.5429ZM21.8123 8.87928C21.2312 8.87928 20.7303 9.3904 20.7403 9.96164C20.7503 10.5429 21.2713 11.0139 21.8424 10.9939C22.3934 10.9739 22.8543 10.5028 22.8743 9.96164C22.8843 9.38038 22.3834 8.86926 21.8123 8.86926M25.1787 12.0963C25.7598 12.0963 26.2608 11.5651 26.2307 10.9939C26.2107 10.4527 25.7398 9.99171 25.1887 9.98169C24.6076 9.97167 24.1067 10.4527 24.0967 11.024C24.0967 11.6052 24.5976 12.1063 25.1787 12.0963ZM44.4854 9.73114C44.5055 10.3024 45.0264 10.7935 45.5975 10.7634C46.1386 10.7333 46.6095 10.2523 46.6195 9.72112C46.6195 9.14987 46.1185 8.63876 45.5374 8.63876C44.9563 8.63876 44.4654 9.14987 44.4754 9.73114M13.0056 22.1984C13.5867 22.2084 14.0976 21.7173 14.0876 21.136C14.0876 20.5949 13.6267 20.1238 13.0757 20.0938C12.4946 20.0637 11.9736 20.5247 11.9536 21.106C11.9335 21.6872 12.4144 22.1984 13.0056 22.1984ZM34.4363 12.2667C35.0174 12.2667 35.5184 11.7656 35.5084 11.1843C35.5084 10.603 34.9874 10.122 34.4063 10.142C33.8652 10.1621 33.3943 10.6331 33.3743 11.1743C33.3543 11.7455 33.8652 12.2567 34.4363 12.2667ZM18.4459 9.88147C19.037 9.87145 19.5179 9.37035 19.4879 8.78908C19.4678 8.20781 18.9569 7.74681 18.3658 7.77688C17.8147 7.80694 17.3538 8.27797 17.3538 8.81915C17.3538 9.40042 17.8548 9.89149 18.4359 9.87145M25.2689 7.80694C25.2488 7.21565 24.7479 6.74462 24.1668 6.78471C23.6157 6.81477 23.1849 7.27578 23.1849 7.83701C23.1849 8.43832 23.6658 8.91937 24.2469 8.90935C24.8381 8.89933 25.2889 8.40825 25.2789 7.80694M7.19451 7.86707C7.20453 7.2858 6.70358 6.78471 6.1325 6.78471C5.56141 6.78471 5.05044 7.30585 5.06046 7.86707C5.06046 8.40825 5.54137 8.8893 6.0824 8.90935C6.65348 8.93941 7.17448 8.44834 7.19451 7.86707ZM30.4487 14.9325C30.4588 14.3512 29.9778 13.8501 29.3867 13.8501C28.8056 13.8501 28.3047 14.3512 28.3147 14.9225C28.3247 15.4637 28.7956 15.9447 29.3466 15.9647C29.9277 15.9848 30.4387 15.5037 30.4487 14.9325ZM16.1215 7.6967C16.1014 7.11543 15.5805 6.62436 15.0094 6.66445C14.4683 6.69451 13.9874 7.17556 13.9874 7.71674C13.9874 8.28799 14.4884 8.7991 15.0695 8.78908C15.6506 8.78908 16.1415 8.27797 16.1215 7.6967ZM17.9349 18.2598C18.5361 18.2497 19.007 17.7486 18.9669 17.1674C18.9368 16.5761 18.4359 16.1451 17.8347 16.1752C17.2737 16.2053 16.8328 16.6763 16.8328 17.2275C16.8328 17.8088 17.3238 18.2798 17.9249 18.2598M52.8814 17.9892C52.9014 18.5704 53.4224 19.0615 53.9935 19.0214C54.5345 18.9914 55.0054 18.5003 55.0154 17.9691C55.0154 17.3979 54.5045 16.8868 53.9334 16.8868C53.3523 16.8868 52.8613 17.3979 52.8814 17.9791M45.7879 6.51412C45.8079 5.93285 45.317 5.42173 44.7359 5.42173C44.1548 5.42173 43.6538 5.92283 43.6639 6.49408C43.6639 7.03526 44.1348 7.52633 44.6858 7.54637C45.2569 7.57644 45.7779 7.09539 45.7879 6.51412ZM25.4292 19.1717C25.4292 18.5805 24.9383 18.0894 24.3571 18.0994C23.8061 18.1195 23.3552 18.5704 23.3352 19.1317C23.3152 19.733 23.766 20.224 24.3571 20.2341C24.9383 20.2441 25.4192 19.763 25.4192 19.1717M15.5905 16.1451C15.6105 15.5739 15.1096 15.0528 14.5385 15.0427C13.9674 15.0427 13.4464 15.5639 13.4564 16.1251C13.4564 16.6563 13.9373 17.1473 14.4683 17.1774C15.0394 17.2075 15.5704 16.7164 15.5905 16.1451ZM31.8013 16.1451C31.8213 16.7264 32.3423 17.2075 32.9134 17.1774C33.4544 17.1373 33.9253 16.6563 33.9253 16.1251C33.9253 15.5539 33.4144 15.0427 32.8433 15.0528C32.2622 15.0528 31.7813 15.5739 31.8013 16.1552M5.2909 3.58773C4.70979 3.59775 4.24891 4.08882 4.26895 4.69013C4.28899 5.25136 4.72983 5.70234 5.2909 5.71237C5.872 5.72239 6.36293 5.24134 6.36293 4.65005C6.36293 4.05876 5.88202 3.56769 5.30091 3.58773M17.7846 13.6497C17.7846 13.0684 17.2837 12.5673 16.7026 12.5774C16.1215 12.5774 15.6205 13.1085 15.6506 13.6798C15.6706 14.2209 16.1415 14.6819 16.6826 14.702C17.2637 14.722 17.7746 14.231 17.7746 13.6597M37.7727 11.2745C37.1815 11.2745 36.6906 11.7656 36.7006 12.3469C36.7006 12.888 37.1615 13.349 37.7226 13.3791C38.3137 13.3991 38.8146 12.9281 38.8347 12.3469C38.8447 11.7656 38.3638 11.2745 37.7727 11.2745ZM4.4493 11.6253C3.84815 11.6052 3.35722 12.0662 3.3472 12.6575C3.3472 13.2087 3.78804 13.6798 4.33908 13.7198C4.94023 13.7599 5.44118 13.319 5.48126 12.7277C5.51131 12.1464 5.05044 11.6453 4.4493 11.6253ZM28.4349 12.8981C29.036 12.9081 29.527 12.4471 29.527 11.8658C29.527 11.2845 29.0461 10.8035 28.4549 10.8135C27.8839 10.8135 27.433 11.2444 27.4029 11.8057C27.3729 12.397 27.8338 12.888 28.4349 12.8981ZM11.4226 11.8858C11.4226 11.2946 10.9316 10.8135 10.3405 10.8436C9.74937 10.8636 9.30853 11.3547 9.33859 11.966C9.36865 12.5172 9.82952 12.9682 10.3706 12.9682C10.9617 12.9682 11.4226 12.4771 11.4125 11.8858M11.2823 16.065C11.8634 16.065 12.3643 15.5539 12.3343 14.9826C12.3142 14.4013 11.7933 13.9403 11.2122 13.9604C10.6511 13.9904 10.2102 14.4514 10.2002 15.0026C10.2002 15.5939 10.6811 16.075 11.2823 16.065ZM39.4458 19.4423C40.037 19.4423 40.5279 18.9613 40.5279 18.38C40.5279 17.7988 40.0269 17.3177 39.4258 17.3377C38.8748 17.3578 38.4139 17.8088 38.3938 18.36C38.3738 18.9312 38.8647 19.4323 39.4559 19.4423M47.8117 10.8135C47.8117 11.4048 48.2826 11.8758 48.8938 11.8658C49.4849 11.8658 49.9658 11.3547 49.9358 10.7834C49.9157 10.2322 49.4549 9.79127 48.9038 9.77123C48.3027 9.7612 47.8218 10.2222 47.8218 10.8135M48.7335 13.77C48.7335 14.3512 49.2445 14.8523 49.8256 14.8223C50.3766 14.8022 50.8275 14.3412 50.8475 13.79C50.8676 13.1987 50.3967 12.7076 49.8055 12.6976C49.2244 12.6976 48.7235 13.1887 48.7335 13.77ZM25.2889 28.462C25.2889 29.0433 25.7799 29.5444 26.361 29.5344C26.912 29.5344 27.3829 29.0934 27.413 28.5422C27.443 27.9609 26.9821 27.4498 26.391 27.4198C25.8099 27.3897 25.2989 27.8808 25.2889 28.462ZM14.9392 24.2328C14.9392 23.6415 14.4583 23.1504 13.8772 23.1504C13.2961 23.1504 12.8052 23.6616 12.8252 24.2428C12.8352 24.794 13.2961 25.2651 13.8472 25.2851C14.4182 25.3051 14.9292 24.8141 14.9392 24.2328ZM16.3119 23.3108C16.893 23.3308 17.4039 22.8598 17.424 22.2785C17.434 21.6973 16.933 21.2062 16.3519 21.2062C15.8009 21.2062 15.33 21.6472 15.2899 22.1984C15.2498 22.7696 15.7207 23.2907 16.3119 23.3108ZM48.8738 22.8498C49.4649 22.8598 49.9658 22.3888 49.9658 21.8075C49.9658 21.2563 49.525 20.7853 48.974 20.7552C48.3728 20.7251 47.8618 21.1661 47.8418 21.7574C47.8117 22.3387 48.2927 22.8398 48.8838 22.8498M12.9655 6.91499C12.9755 6.31368 12.5146 5.82261 11.9335 5.81259C11.3524 5.81259 10.8715 6.30366 10.8815 6.89495C10.8815 7.45617 11.3224 7.9272 11.8734 7.94725C12.4545 7.98733 12.9555 7.50628 12.9755 6.91499M8.69737 16.0549C8.10625 16.075 7.65539 16.5661 7.68545 17.1674C7.71551 17.7286 8.16636 18.1696 8.72743 18.1696C9.31855 18.1696 9.77943 17.6985 9.76941 17.0972C9.76941 16.4859 9.2885 16.0349 8.68735 16.0549M34.5565 8.07753C34.5766 7.48624 34.1057 6.98515 33.5246 6.97513C32.9435 6.9651 32.4525 7.44615 32.4525 8.03744C32.4525 8.58864 32.8834 9.0697 33.4344 9.09976C34.0155 9.13985 34.5265 8.66882 34.5465 8.07753M50.2764 8.749C50.2764 9.34029 50.7774 9.82134 51.3585 9.79127C51.9095 9.77123 52.3504 9.31022 52.3604 8.749C52.3604 8.15771 51.8995 7.66664 51.3184 7.65661C50.7373 7.65661 50.2664 8.14769 50.2764 8.749ZM10.5208 8.96948C10.5208 8.38821 10.0399 7.90716 9.4488 7.91718C8.85768 7.91718 8.36674 8.40825 8.38678 8.99955C8.40682 9.55075 8.85768 10.0017 9.41874 10.0118C10.0199 10.0318 10.5108 9.57079 10.5108 8.9795M27.6534 10.0719C28.2445 10.0719 28.7355 9.60085 28.7355 9.01959C28.7355 8.43832 28.2445 7.94725 27.6534 7.96729C27.1024 7.96729 26.6315 8.4283 26.6114 8.9795C26.5814 9.56077 27.0623 10.0619 27.6534 10.0719ZM3.46743 10.6632C4.04853 10.6832 4.5595 10.2022 4.56952 9.6209C4.57954 9.03963 4.08861 8.53854 3.5075 8.53854C2.95645 8.53854 2.48556 8.99954 2.4555 9.54072C2.41543 10.132 2.88632 10.6331 3.46743 10.6632ZM22.8343 20.9456C22.8343 20.3543 22.3533 19.8933 21.7522 19.9033C21.1911 19.9033 20.7303 20.3443 20.7102 20.8955C20.6802 21.4768 21.1611 21.9779 21.7422 21.9879C22.3433 21.9879 22.8242 21.5369 22.8242 20.9456M32.0818 10.1621C32.1019 9.58081 31.621 9.0697 31.0399 9.0697C30.4587 9.0697 29.9578 9.56077 29.9578 10.142C29.9578 10.6832 30.4187 11.1542 30.9697 11.1843C31.5508 11.2144 32.0618 10.7534 32.0818 10.1721M40.077 8.96948C39.4759 8.90935 38.9549 9.32024 38.8948 9.91154C38.8347 10.4828 39.2855 11.0139 39.8767 11.044C40.4477 11.0841 40.9287 10.7033 41.0088 10.142C41.089 9.56077 40.6581 9.01959 40.077 8.95946M36.2197 18.3199C36.8008 18.3199 37.2917 17.8088 37.2617 17.2275C37.2416 16.6763 36.7707 16.2253 36.2197 16.2153C35.6286 16.2153 35.1376 16.6663 35.1376 17.2676C35.1376 17.8489 35.6286 18.3299 36.2197 18.3199ZM27.2126 25.2149C27.2126 24.6237 26.7417 24.1426 26.1405 24.1526C25.5594 24.1526 25.0685 24.6537 25.0885 25.235C25.1086 25.7862 25.5695 26.2472 26.1205 26.2672C26.7016 26.2873 27.2026 25.8062 27.2026 25.2149M50.6471 17.919C51.2383 17.919 51.7092 17.458 51.6991 16.8567C51.6991 16.2855 51.2683 15.8345 50.7073 15.8144C50.1161 15.7844 49.6252 16.2353 49.6052 16.8367C49.5851 17.438 50.046 17.919 50.6371 17.919M49.1242 18.9914C49.1242 18.39 48.6734 17.919 48.0823 17.919C47.4911 17.919 47.0303 18.39 47.0403 18.9914C47.0403 19.5626 47.4711 20.0036 48.0422 20.0236C48.6333 20.0437 49.1242 19.5826 49.1242 18.9914ZM18.3557 25.5958C18.3457 25.0145 17.8147 24.5335 17.2436 24.5735C16.6525 24.6036 16.2016 25.1247 16.2417 25.706C16.2818 26.2572 16.7527 26.6982 17.3037 26.6882C17.8848 26.6882 18.3758 26.167 18.3557 25.5958ZM57.2196 18.0493C56.6185 18.0593 56.1676 18.5504 56.1877 19.1417C56.2177 19.733 56.7087 20.1639 57.3098 20.1338C57.8709 20.1038 58.3117 19.6428 58.3017 19.0816C58.3017 18.4903 57.8108 18.0293 57.2096 18.0493M30.2083 7.97731C30.7994 7.97731 31.2603 7.49626 31.2402 6.89495C31.2302 6.3237 30.7894 5.88274 30.2283 5.87272C29.6272 5.85267 29.1563 6.30366 29.1463 6.90497C29.1463 7.50629 29.6071 7.97731 30.1983 7.97731M11.3624 23.0703C11.3825 22.4689 10.9316 21.9879 10.3305 21.9779C9.73935 21.9679 9.26846 22.4289 9.26846 23.0302C9.26846 23.6014 9.68926 24.0624 10.2503 24.0925C10.8314 24.1326 11.3424 23.6716 11.3624 23.0703ZM11.9936 17.1674C11.3925 17.1674 10.9517 17.6484 10.9617 18.2497C10.9817 18.821 11.4125 19.2519 11.9736 19.272C12.5747 19.292 13.0456 18.831 13.0456 18.2297C13.0456 17.6184 12.5948 17.1574 11.9936 17.1674ZM16.412 19.292C16.392 18.6907 15.9111 18.2397 15.32 18.2698C14.7288 18.2898 14.288 18.7909 14.3281 19.3922C14.3682 19.9535 14.819 20.3844 15.3801 20.3844C15.9712 20.3844 16.4321 19.8933 16.412 19.292ZM52.4606 20.1038C52.4706 19.5025 52.0097 19.0214 51.4186 19.0214C50.8275 19.0214 50.3566 19.4925 50.3666 20.0938C50.3666 20.655 50.8074 21.106 51.3685 21.126C51.9596 21.1461 52.4506 20.6951 52.4606 20.0938M54.785 22.2284C55.3661 22.2284 55.847 21.7273 55.827 21.136C55.807 20.5447 55.306 20.0837 54.7249 20.1038C54.1738 20.1339 53.723 20.5949 53.713 21.1461C53.713 21.7273 54.1939 22.2284 54.785 22.2184M41.3595 21.597C41.3795 20.9957 40.9186 20.5047 40.3275 20.5047C39.7364 20.5047 39.2655 20.9657 39.2655 21.567C39.2655 22.1382 39.6963 22.5892 40.2574 22.6193C40.8485 22.6493 41.3394 22.1984 41.3595 21.597ZM59.1934 22.2685C59.1934 21.6772 58.7225 21.1962 58.1314 21.2062C57.5703 21.2062 57.1094 21.6472 57.0794 22.1984C57.0393 22.7796 57.5202 23.2907 58.1113 23.3108C58.7025 23.3208 59.1934 22.8698 59.2034 22.2785M53.4024 22.9901C53.4024 22.4088 52.9114 21.9378 52.3203 21.9478C51.7292 21.9578 51.2683 22.4489 51.2884 23.0402C51.3084 23.5914 51.7693 24.0424 52.3203 24.0524C52.9114 24.0524 53.4024 23.5814 53.4024 22.9901ZM56.7487 24.1226C56.7588 23.5212 56.2979 23.0402 55.7068 23.0402C55.1457 23.0402 54.6848 23.4812 54.6548 24.0324C54.6147 24.6337 55.0655 25.1247 55.6567 25.1548C56.2478 25.1749 56.7387 24.7139 56.7487 24.1226ZM2.6659 5.70235C2.07478 5.70235 1.59387 6.21346 1.62392 6.79473C1.65398 7.376 2.16495 7.82698 2.74606 7.79692C3.30712 7.76685 3.73794 7.30585 3.73794 6.75464C3.73794 6.16335 3.25703 5.6823 2.65588 5.70235M21.2011 14.8323C21.2011 14.241 20.7102 13.78 20.1091 13.8C19.5079 13.81 19.0571 14.3111 19.0771 14.8924C19.1072 15.4436 19.558 15.8846 20.1191 15.8846C20.7102 15.8846 21.2011 15.4135 21.2011 14.8323ZM44.5856 13.6096C43.9945 13.6096 43.5136 14.0907 43.5236 14.6819C43.5236 15.2432 43.9744 15.6942 44.5255 15.7142C45.1166 15.7443 45.6176 15.2732 45.6376 14.6819C45.6576 14.1007 45.1767 13.5996 44.5856 13.5996M36.2999 14.1809C36.3199 13.5795 35.859 13.0985 35.2679 13.0885C34.7068 13.0885 34.2459 13.4994 34.2159 14.0706C34.1758 14.6719 34.6066 15.173 35.1978 15.2031C35.7889 15.2332 36.2798 14.7822 36.2999 14.1809ZM7.86579 14.8924C8.45692 14.8824 8.93783 14.3813 8.90777 13.8C8.87772 13.2488 8.41684 12.8079 7.85577 12.8079C7.25463 12.8079 6.77371 13.2689 6.78373 13.8602C6.78373 14.4514 7.26465 14.9024 7.86579 14.8924ZM31.9316 11.9861C31.3304 11.966 30.8595 12.417 30.8495 13.0183C30.8495 13.6196 31.3004 14.1007 31.8915 14.1007C32.4626 14.1007 32.9034 13.6697 32.9335 13.1085C32.9635 12.4972 32.5327 12.0161 31.9316 11.9961M12.7551 11.1242C13.3262 11.1242 13.8371 10.593 13.8171 10.0318C13.8071 9.46055 13.2661 8.96948 12.705 8.99955C12.164 9.01959 11.6931 9.51066 11.683 10.0418C11.683 10.603 12.184 11.1242 12.7551 11.1242ZM18.1954 11.7355C18.1754 12.3368 18.6262 12.8179 19.2174 12.8279C19.7784 12.8379 20.2393 12.417 20.2794 11.8558C20.3195 11.2444 19.8887 10.7433 19.2975 10.7033C18.7164 10.6632 18.2155 11.1342 18.1954 11.7355ZM16.4922 5.53197C16.4421 6.14331 16.8629 6.6444 17.464 6.68449C18.0251 6.72458 18.506 6.3237 18.5762 5.7725C18.6563 5.17119 18.2455 4.65005 17.6544 4.58992C17.0633 4.52979 16.5423 4.9507 16.4922 5.53197ZM50.7674 24.8542C50.7674 24.2629 50.2764 23.7918 49.6853 23.8119C49.1042 23.8319 48.6433 24.333 48.6734 24.9243C48.7034 25.4755 49.1643 25.9265 49.7154 25.9265C50.3065 25.9265 50.7874 25.4354 50.7774 24.8441M47.411 12.6174C47.3909 12.0261 46.9 11.5651 46.2989 11.5952C45.7077 11.6253 45.2669 12.1163 45.307 12.7177C45.3471 13.2789 45.7979 13.6998 46.369 13.6998C46.9601 13.6998 47.421 13.2087 47.401 12.6174M9.52895 5.73241C9.50891 5.1311 9.028 4.70016 8.42686 4.73022C7.82571 4.76029 7.3949 5.25136 7.43497 5.85267C7.47505 6.4139 7.9259 6.8248 8.49699 6.81478C9.10815 6.81478 9.54899 6.34375 9.52895 5.73241ZM30.058 26.6982C30.078 26.0868 29.6372 25.6158 29.026 25.6158C28.4149 25.6158 27.964 26.0568 27.974 26.6681C27.974 27.2394 28.3848 27.6703 28.9559 27.7004C29.5671 27.7304 30.0379 27.2895 30.058 26.6982ZM6.924 9.76121C6.32285 9.76121 5.872 10.2322 5.89204 10.8436C5.91208 11.4148 6.3429 11.8458 6.90396 11.8558C7.50511 11.8658 7.976 11.4148 7.976 10.8135C7.976 10.2022 7.52514 9.75118 6.924 9.76121ZM23.6358 12.858C23.6258 12.2567 23.1448 11.8157 22.5437 11.8357C21.9826 11.8658 21.5518 12.2967 21.5518 12.868C21.5518 13.4793 21.9927 13.9403 22.5938 13.9403C23.1949 13.9403 23.6458 13.4693 23.6358 12.858ZM23.5957 25.9465C22.9845 25.9465 22.5437 26.4075 22.5637 27.0289C22.5838 27.6302 23.0547 28.0712 23.6558 28.0411C24.2269 28.0211 24.6377 27.5801 24.6477 27.0089C24.6477 26.3975 24.1968 25.9465 23.5957 25.9566M47.2306 16.7665C47.8418 16.7665 48.2927 16.3155 48.2826 15.7142C48.2826 15.143 47.8518 14.702 47.2908 14.692C46.6796 14.6619 46.2087 15.1029 46.1987 15.7042C46.1887 16.3055 46.6395 16.7665 47.2407 16.7665M20.7403 7.81696C21.3414 7.83701 21.8123 7.39604 21.8223 6.79473C21.8223 6.1834 21.3815 5.72239 20.7803 5.72239C20.2093 5.72239 19.7684 6.14331 19.7384 6.71455C19.7083 7.31587 20.1391 7.79692 20.7403 7.81696ZM37.8328 9.11981C37.8228 8.51849 37.3418 8.08755 36.7407 8.10759C36.1696 8.12764 35.7488 8.55858 35.7488 9.13985C35.7488 9.75119 36.1896 10.2022 36.8008 10.2022C37.412 10.2022 37.8428 9.74116 37.8328 9.12983M19.7684 20.4044C19.7484 19.8031 19.2675 19.3722 18.6663 19.4023C18.0952 19.4323 17.6744 19.8733 17.6845 20.4445C17.6845 21.0559 18.1353 21.4968 18.7465 21.4868C19.3476 21.4768 19.7885 21.0058 19.7684 20.4044ZM27.6434 21.3665C28.2546 21.3665 28.7054 20.9156 28.7054 20.3142C28.7054 19.733 28.2846 19.302 27.7135 19.272C27.1124 19.2419 26.6315 19.6829 26.6215 20.2842C26.6014 20.8955 27.0423 21.3565 27.6534 21.3665M20.9507 19.1617C21.5618 19.1617 22.0027 18.7107 21.9927 18.0994C21.9826 17.5282 21.5518 17.0972 20.9907 17.0772C20.3796 17.0571 19.9187 17.4981 19.9087 18.0994C19.9087 18.7107 20.3395 19.1617 20.9507 19.1617ZM48.9439 7.67666C48.9539 7.06532 48.5131 6.61434 47.9019 6.61434C47.3308 6.61434 46.89 7.02524 46.8599 7.58646C46.8299 8.19779 47.2607 8.67884 47.8618 8.69889C48.473 8.71893 48.9339 8.27797 48.9439 7.67666ZM20.0991 2.77596C19.548 2.75591 19.0771 3.19687 19.0671 3.7581C19.0471 4.32935 19.4678 4.78033 20.0389 4.79036C20.59 4.80038 21.0709 4.35941 21.0809 3.80821C21.101 3.26703 20.6401 2.78598 20.089 2.76594M6.79375 15.9547C6.81379 15.3935 6.38297 14.9225 5.8219 14.9125C5.28088 14.9024 4.78994 15.3534 4.7699 15.8946C4.74987 16.4358 5.20072 16.9168 5.76179 16.9369C6.33287 16.9569 6.78373 16.526 6.79375 15.9547ZM27.0222 14.0606C27.0222 13.4893 26.5714 13.0484 26.0103 13.0584C25.4693 13.0584 24.9984 13.5395 25.0084 14.0806C25.0084 14.6218 25.4893 15.0828 26.0303 15.0828C26.5914 15.0828 27.0322 14.6318 27.0222 14.0606ZM23.4354 5.79254C23.9764 5.79254 24.4473 5.33153 24.4473 4.78033C24.4473 4.22913 23.9965 3.77814 23.4354 3.77814C22.8743 3.77814 22.4335 4.21911 22.4335 4.78033C22.4335 5.34156 22.8843 5.79254 23.4354 5.79254ZM9.87962 3.91845C9.87962 4.46966 10.3505 4.94068 10.8915 4.94068C11.4326 4.94068 11.9035 4.45963 11.9035 3.91845C11.9035 3.37727 11.4526 2.91627 10.8915 2.91627C10.3305 2.91627 9.87962 3.36725 9.87962 3.91845ZM2.39539 2.91627C1.8243 2.91627 1.38346 3.36725 1.38346 3.91845C1.38346 4.45963 1.86438 4.94068 2.40541 4.93066C2.95646 4.93066 3.40731 4.46965 3.40731 3.90843C3.40731 3.33718 2.96648 2.90624 2.39539 2.91627ZM15.5304 4.67009C15.5304 4.11889 15.0595 3.6679 14.5084 3.67793C13.9674 3.68795 13.5065 4.169 13.5165 4.71018C13.5165 5.26138 13.9874 5.70234 14.5485 5.69232C15.1196 5.69232 15.5504 5.24134 15.5404 4.67009M17.6143 2.72585C17.6043 2.1546 17.1535 1.73368 16.5824 1.7437C16.0213 1.7437 15.5805 2.22475 15.5905 2.77596C15.6105 3.31714 16.0914 3.77815 16.6325 3.76812C17.1835 3.7581 17.6243 3.28707 17.6043 2.72585M19.6081 24.2027C20.1091 24.2027 20.5299 23.8219 20.5599 23.3308C20.59 22.8097 20.1491 22.3487 19.6282 22.3387C19.0971 22.3387 18.6864 22.7696 18.6964 23.3108C18.7064 23.8319 19.0871 24.2027 19.6081 24.2128M38.5642 16.1151C39.0852 16.1251 39.4759 15.7743 39.516 15.2632C39.556 14.722 39.1553 14.2711 38.6143 14.261C38.0933 14.241 37.6324 14.692 37.6424 15.2031C37.6424 15.6942 38.0632 16.1051 38.5642 16.1151ZM13.6167 12.0061C13.1258 12.0161 12.705 12.427 12.695 12.9181C12.695 13.4192 13.1559 13.8902 13.6668 13.8802C14.1878 13.8602 14.5986 13.4092 14.5685 12.868C14.5385 12.3569 14.1377 11.9961 13.6167 12.0161" fill="#01723B"/>
<path d="M72.3284 55.9722C75.1237 57.255 77.4982 59.0088 79.1614 61.5744C79.9629 62.8171 80.6342 64.15 81.3155 65.4629C81.5359 65.8738 81.6361 66.3749 81.6761 66.8359C81.7463 67.7479 81.1652 68.4093 80.2635 68.4995C79.8827 68.5396 79.472 68.4995 79.0912 68.4394C78.46 68.3291 78.0493 67.9183 77.8589 67.3069C77.7787 67.0363 77.7186 66.7657 77.6785 66.4851C77.0974 62.4964 75.3441 59.089 72.5488 56.2127C72.4686 56.1325 72.4085 56.0523 72.3384 55.9722" fill="#01723B"/>
</svg>
