<svg width="160" height="112" viewBox="0 0 160 112" fill="none" xmlns="http://www.w3.org/2000/svg">
<g filter="url(#filter0_b_384_1010)">
<path d="M64 80L105.52 56L64 32V80ZM156.48 17.36C157.52 21.12 158.24 26.16 158.72 32.56C159.28 38.96 159.52 44.48 159.52 49.28L160 56C160 73.52 158.72 86.4 156.48 94.64C154.48 101.84 149.84 106.48 142.64 108.48C138.88 109.52 132 110.24 121.44 110.72C111.04 111.28 101.52 111.52 92.72 111.52L80 112C46.48 112 25.6 110.72 17.36 108.48C10.16 106.48 5.52 101.84 3.52 94.64C2.48 90.88 1.76 85.84 1.28 79.44C0.720001 73.04 0.48 67.52 0.48 62.72L0 56C0 38.48 1.28 25.6 3.52 17.36C5.52 10.16 10.16 5.52 17.36 3.52C21.12 2.48 28 1.76 38.56 1.28C48.96 0.719999 58.48 0.48 67.28 0.48L80 0C113.52 0 134.4 1.28 142.64 3.52C149.84 5.52 154.48 10.16 156.48 17.36Z" fill="white" fill-opacity="0.5"/>
</g>
<defs>
<filter id="filter0_b_384_1010" x="-16" y="-16" width="192" height="144" filterUnits="userSpaceOnUse" color-interpolation-filters="sRGB">
<feFlood flood-opacity="0" result="BackgroundImageFix"/>
<feGaussianBlur in="BackgroundImageFix" stdDeviation="8"/>
<feComposite in2="SourceAlpha" operator="in" result="effect1_backgroundBlur_384_1010"/>
<feBlend mode="normal" in="SourceGraphic" in2="effect1_backgroundBlur_384_1010" result="shape"/>
</filter>
</defs>
</svg>
